<svg width="40" height="40" viewBox="0 0 40 40" fill="none" xmlns="http://www.w3.org/2000/svg">
    <defs>
        <linearGradient id="grad-ffk" x1="6" y1="8" x2="34" y2="34" gradientUnits="userSpaceOnUse">
            <stop offset="0.1" stop-color="#6B57FF"/>
            <stop offset="0.55" stop-color="#3C99CC"/>
            <stop offset="1" stop-color="#3BEA62"/>
        </linearGradient>
    </defs>
    <path d="M7 15a3 3 0 0 1 3-3h6l2 2h12a3 3 0 0 1 3 3v12a3 3 0 0 1-3 3H10a3 3 0 0 1-3-3V15z" fill="url(#grad-ffk)"/>
    <path d="M20 14v6m0 0l-6 4m6-4l6 4" stroke="white" stroke-opacity="0.75" stroke-width="2.2" stroke-linecap="round" stroke-linejoin="round"/>
    <circle cx="20" cy="14" r="2.2" fill="white" fill-opacity="0.75"/>
    <circle cx="14" cy="24" r="2.2" fill="white" fill-opacity="0.75"/>
    <circle cx="26" cy="24" r="2.2" fill="white" fill-opacity="0.75"/>
</svg>
