<svg width="40" height="40" viewBox="0 0 40 40" xmlns="http://www.w3.org/2000/svg">
    <defs>
        <linearGradient id="div" x1="6" y1="6" x2="34" y2="34" gradientUnits="userSpaceOnUse">
            <stop offset="0.1" stop-color="#3BEA62"/><stop offset="1" stop-color="#6B57FF"/>
        </linearGradient>
    </defs>
    <path d="M20 10v8m0 0l-7 5m7-5l7 5" fill="none" stroke="url(#div)" stroke-width="2.4" stroke-linecap="round" stroke-linejoin="round"/>
    <circle cx="20" cy="10" r="2.6" fill="url(#div)"/>
    <!-- mini folders -->
    <path d="M6.5 26.5h6.5a2 2 0 0 1 2 2v4.5H8.5a2 2 0 0 1-2-2v-4.5z" fill="url(#div)"/>
    <path d="M27 26.5h6.5a2 2 0 0 1 2 2v4.5H29a2 2 0 0 1-2-2v-4.5z" fill="url(#div)"/>
</svg>
